<svg width="88" height="88" viewBox="0 0 88 88" fill="none" xmlns="http://www.w3.org/2000/svg">
<rect x="3" y="3" width="82" height="82" rx="41" fill="white"/>
<rect x="3" y="3" width="82" height="82" rx="41" stroke="#0060AF" stroke-opacity="0.3" stroke-width="6"/>
<path d="M35.25 33.7765C35.25 32.3603 35.25 31.6521 35.5453 31.2618C35.8026 30.9217 36.1958 30.7113 36.6214 30.6858C37.11 30.6567 37.6992 31.0495 38.8776 31.8351L54.2128 42.0585C55.1865 42.7077 55.6734 43.0323 55.843 43.4413C55.9914 43.799 55.9914 44.201 55.843 44.5586C55.6734 44.9677 55.1865 45.2923 54.2128 45.9414L38.8776 56.1649C37.6992 56.9505 37.11 57.3433 36.6214 57.3141C36.1958 57.2887 35.8026 57.0783 35.5453 56.7382C35.25 56.3479 35.25 55.6397 35.25 54.2235V33.7765Z" fill="#0060AF" stroke="#0060AF" stroke-width="2" stroke-linecap="round" stroke-linejoin="round"/>
</svg>
