<svg width="117" height="74" viewBox="0 0 117 74" fill="none" xmlns="http://www.w3.org/2000/svg">
<path fill-rule="evenodd" clip-rule="evenodd" d="M38.0884 102.813H78.9113C84.4374 102.813 89.5438 99.894 92.3064 95.1565L112.718 60.1562C115.481 55.4186 115.481 49.5814 112.718 44.8437L92.3064 9.84375C89.5438 5.10607 84.4374 2.1875 78.9113 2.1875L38.0884 2.1875C32.5625 2.1875 27.4563 5.10607 24.6934 9.84375L4.28183 44.8438C1.51887 49.5814 1.51887 55.4186 4.28183 60.1562L24.6933 95.1565C27.4563 99.894 32.5625 102.813 38.0884 102.813ZM78.9113 105C85.2269 105 91.0624 101.665 94.22 96.2502L114.632 61.2498C117.789 55.8354 117.789 49.1646 114.632 43.75L94.22 8.74998C91.0624 3.33548 85.2269 -5.48095e-07 78.9113 0L38.0884 3.54295e-06C31.7731 4.09105e-06 25.9375 3.33548 22.7798 8.74998L2.36826 43.75C-0.789413 49.1646 -0.789423 55.8354 2.36825 61.2498L22.7798 96.2502C25.9375 101.665 31.7731 105 38.0884 105H78.9113Z" fill="url(#paint0_linear_4604_14498)"/>
<defs>
<linearGradient id="paint0_linear_4604_14498" x1="58.4999" y1="105" x2="58.4999" y2="0" gradientUnits="userSpaceOnUse">
<stop stop-color="#4AA147" stop-opacity="0.1"/>
<stop offset="1" stop-color="#00A88E"/>
</linearGradient>
</defs>
</svg>
