<svg width="109" height="49" viewBox="0 0 109 49" fill="none" xmlns="http://www.w3.org/2000/svg">
<path fill-rule="evenodd" clip-rule="evenodd" d="M2.18 -5.5C2.18 23.3955 25.6045 46.82 54.5 46.82C83.3956 46.82 106.82 23.3955 106.82 -5.5C106.82 -34.3956 83.3956 -57.82 54.5 -57.82C25.6045 -57.82 2.18 -34.3956 2.18 -5.5ZM0 -5.5C-1.31569e-06 24.5995 24.4005 49 54.5 49C84.5997 49 109 24.5995 109 -5.5C109 -35.5997 84.5997 -60 54.5 -60C24.4005 -60 1.31569e-06 -35.5997 0 -5.5Z" fill="url(#paint0_linear_4604_14497)"/>
<defs>
<linearGradient id="paint0_linear_4604_14497" x1="109" y1="-5.50005" x2="-6.49691e-06" y2="-5.50005" gradientUnits="userSpaceOnUse">
<stop stop-color="#C72C91" stop-opacity="0.1"/>
<stop offset="1" stop-color="#44ABFF"/>
</linearGradient>
</defs>
</svg>
