<svg width="112" height="112" viewBox="0 0 112 112" fill="none" xmlns="http://www.w3.org/2000/svg">
<path d="M39.2687 72.66C33.832 76.93 30.332 83.5567 30.332 91V98H16.332C12.4587 98 9.33203 94.8733 9.33203 91V86.3333C9.33203 77.3033 16.6354 70 25.6654 70H30.332C33.6454 70 36.702 70.98 39.2687 72.66Z" fill="#00A88E"/>
<path d="M84 70C89.799 70 94.5 65.299 94.5 59.5C94.5 53.701 89.799 49 84 49C78.201 49 73.5 53.701 73.5 59.5C73.5 65.299 78.201 70 84 70Z" fill="#00A88E"/>
<path d="M28 70C33.799 70 38.5 65.299 38.5 59.5C38.5 53.701 33.799 49 28 49C22.201 49 17.5 53.701 17.5 59.5C17.5 65.299 22.201 70 28 70Z" fill="#00A88E"/>
<path d="M102.665 86.3333V91C102.665 94.8733 99.5385 98 95.6652 98H81.6652V91C81.6652 83.5567 78.1652 76.93 72.7285 72.66C75.2952 70.98 78.3518 70 81.6652 70H86.3318C95.3618 70 102.665 77.3033 102.665 86.3333Z" fill="#00A88E"/>
<path d="M55.9993 72.3334C63.087 72.3334 68.8327 66.5877 68.8327 59.5001C68.8327 52.4124 63.087 46.6667 55.9993 46.6667C48.9117 46.6667 43.166 52.4124 43.166 59.5001C43.166 66.5877 48.9117 72.3334 55.9993 72.3334Z" fill="#00A88E"/>
<path d="M58.3333 72.3333H53.6667C43.3743 72.3333 35 80.7076 35 90.9999V97.9999C35 101.859 38.1407 105 42 105H70C73.8593 105 77 101.859 77 97.9999V90.9999C77 80.7076 68.6257 72.3333 58.3333 72.3333Z" fill="#00A88E"/>
<path d="M89.8317 38.9293L84.2014 40.9313C82.6031 41.4983 80.9347 40.2873 80.9814 38.5909L81.1447 32.6176L77.5001 27.8809C76.4664 26.5369 77.1034 24.5746 78.7297 24.0939L84.4627 22.4046L87.8414 17.4743C88.8004 16.0766 90.8631 16.0766 91.8221 17.4743L95.2007 22.4046L100.934 24.0939C102.56 24.5723 103.197 26.5369 102.163 27.8809L98.5187 32.6176L98.6821 38.5909C98.7287 40.2849 97.0581 41.4983 95.4621 40.9313L89.8317 38.9293Z" fill="#00A88E"/>
<path d="M22.1657 38.9293L16.5354 40.9313C14.9371 41.4983 13.2687 40.2873 13.3154 38.5909L13.4787 32.6176L9.83405 27.8809C8.80039 26.5369 9.43739 24.5746 11.0637 24.0939L16.7967 22.4046L20.1754 17.4743C21.1344 16.0766 23.1971 16.0766 24.1561 17.4743L27.5347 22.4046L33.2677 24.0939C34.8941 24.5723 35.5311 26.5369 34.4974 27.8809L30.8527 32.6176L31.0161 38.5909C31.0627 40.2849 29.3921 41.4983 27.7961 40.9313L22.1657 38.9293Z" fill="#00A88E"/>
<path d="M55.9985 33.6793L49.3229 36.0523C47.4282 36.7267 45.4495 35.287 45.5055 33.278L45.6992 26.1963L41.3779 20.58C40.1529 18.9863 40.9089 16.66 42.8362 16.0907L49.6332 14.0863L53.6395 8.24132C54.7759 6.58232 57.2235 6.58232 58.3599 8.24132L62.3662 14.0863L69.1632 16.0907C71.0905 16.66 71.8465 18.9863 70.6215 20.58L66.3002 26.1963L66.4939 33.278C66.5499 35.287 64.5689 36.7267 62.6765 36.0523L55.9985 33.6793Z" fill="#00A88E"/>
</svg>
