<svg width="195" height="94" viewBox="0 0 195 94" fill="none" xmlns="http://www.w3.org/2000/svg">
<path d="M193.827 4.78913C192.054 0.742337 187.336 -1.10068 183.289 0.672632C179.242 2.44595 177.399 7.16407 179.173 11.2109C180.946 15.2577 185.664 17.1007 189.711 15.3274C193.758 13.5541 195.601 8.83593 193.827 4.78913ZM15.8274 82.7891C14.054 78.7423 9.33591 76.8993 5.28912 78.6726C1.24233 80.4459 -0.600688 85.1641 1.17263 89.2109C2.94594 93.2577 7.66407 95.1007 11.7109 93.3274C15.7577 91.554 17.6007 86.8359 15.8274 82.7891ZM181.448 8.57612C180.689 8.90861 180.344 9.79326 180.676 10.552C181.009 11.3108 181.893 11.6564 182.652 11.3239L181.448 8.57612ZM173.752 15.2239C174.511 14.8914 174.856 14.0067 174.524 13.248C174.191 12.4892 173.307 12.1436 172.548 12.4761L173.752 15.2239ZM163.648 16.3761C162.889 16.7086 162.544 17.5933 162.876 18.352C163.209 19.1108 164.093 19.4564 164.852 19.1239L163.648 16.3761ZM155.952 23.0239C156.711 22.6914 157.056 21.8067 156.724 21.048C156.391 20.2892 155.507 19.9436 154.748 20.2761L155.952 23.0239ZM145.848 24.1761C145.089 24.5086 144.744 25.3933 145.076 26.152C145.409 26.9108 146.293 27.2564 147.052 26.9239L145.848 24.1761ZM138.152 30.8239C138.911 30.4914 139.256 29.6067 138.924 28.848C138.591 28.0892 137.707 27.7436 136.948 28.0761L138.152 30.8239ZM128.048 31.9761C127.289 32.3086 126.944 33.1933 127.276 33.952C127.609 34.7108 128.493 35.0564 129.252 34.7239L128.048 31.9761ZM120.352 38.6239C121.111 38.2914 121.456 37.4067 121.124 36.648C120.791 35.8892 119.907 35.5436 119.148 35.8761L120.352 38.6239ZM110.248 39.7761C109.489 40.1086 109.144 40.9933 109.476 41.752C109.809 42.5108 110.693 42.8564 111.452 42.5239L110.248 39.7761ZM102.552 46.4239C103.311 46.0914 103.656 45.2067 103.324 44.448C102.991 43.6892 102.107 43.3436 101.348 43.6761L102.552 46.4239ZM92.448 47.5761C91.6892 47.9086 91.3436 48.7933 91.6761 49.552C92.0086 50.3108 92.8933 50.6564 93.652 50.3239L92.448 47.5761ZM84.752 54.2239C85.5108 53.8914 85.8564 53.0067 85.5239 52.248C85.1914 51.4892 84.3067 51.1436 83.548 51.4761L84.752 54.2239ZM74.648 55.3761C73.8892 55.7086 73.5436 56.5933 73.8761 57.352C74.2086 58.1108 75.0933 58.4564 75.852 58.1239L74.648 55.3761ZM66.952 62.0239C67.7108 61.6914 68.0564 60.8067 67.7239 60.048C67.3914 59.2892 66.5067 58.9436 65.748 59.2761L66.952 62.0239ZM56.848 63.1761C56.0892 63.5086 55.7436 64.3933 56.0761 65.152C56.4086 65.9108 57.2932 66.2564 58.052 65.9239L56.848 63.1761ZM49.152 69.8239C49.9108 69.4914 50.2564 68.6067 49.9239 67.848C49.5914 67.0892 48.7067 66.7436 47.948 67.0761L49.152 69.8239ZM39.0479 70.9761C38.2892 71.3086 37.9436 72.1933 38.2761 72.952C38.6086 73.7108 39.4932 74.0564 40.252 73.7239L39.0479 70.9761ZM31.352 77.6239C32.1108 77.2914 32.4564 76.4067 32.1239 75.648C31.7914 74.8892 30.9067 74.5436 30.1479 74.8761L31.352 77.6239ZM21.2479 78.7761C20.4892 79.1086 20.1436 79.9933 20.4761 80.752C20.8086 81.5108 21.6932 81.8564 22.452 81.5239L21.2479 78.7761ZM13.552 85.4239C14.3108 85.0914 14.6564 84.2067 14.3239 83.448C13.9914 82.6892 13.1067 82.3436 12.3479 82.6761L13.552 85.4239ZM185.898 6.62612L181.448 8.57612L182.652 11.3239L187.102 9.37388L185.898 6.62612ZM172.548 12.4761L163.648 16.3761L164.852 19.1239L173.752 15.2239L172.548 12.4761ZM154.748 20.2761L145.848 24.1761L147.052 26.9239L155.952 23.0239L154.748 20.2761ZM136.948 28.0761L128.048 31.9761L129.252 34.7239L138.152 30.8239L136.948 28.0761ZM119.148 35.8761L110.248 39.7761L111.452 42.5239L120.352 38.6239L119.148 35.8761ZM101.348 43.6761L92.448 47.5761L93.652 50.3239L102.552 46.4239L101.348 43.6761ZM83.548 51.4761L74.648 55.3761L75.852 58.1239L84.752 54.2239L83.548 51.4761ZM65.748 59.2761L56.848 63.1761L58.052 65.9239L66.952 62.0239L65.748 59.2761ZM47.948 67.0761L39.0479 70.9761L40.252 73.7239L49.152 69.8239L47.948 67.0761ZM30.1479 74.8761L21.2479 78.7761L22.452 81.5239L31.352 77.6239L30.1479 74.8761ZM12.3479 82.6761L7.89796 84.6261L9.10203 87.3739L13.552 85.4239L12.3479 82.6761Z" fill="url(#paint0_linear_4623_60033)"/>
<defs>
<linearGradient id="paint0_linear_4623_60033" x1="186.471" y1="7.9336" x2="183.551" y2="1.77796" gradientUnits="userSpaceOnUse">
<stop stop-color="#0072BC"/>
<stop offset="1" stop-color="#009FA9"/>
</linearGradient>
</defs>
</svg>
