<svg width="17" height="116" viewBox="0 0 17 116" fill="none" xmlns="http://www.w3.org/2000/svg">
<path d="M8.5 116C12.9183 116 16.5 112.418 16.5 108C16.5 103.582 12.9183 100 8.5 100C4.08172 100 0.5 103.582 0.5 108C0.5 112.418 4.08172 116 8.5 116ZM8.5 16C12.9183 16 16.5 12.4183 16.5 8C16.5 3.58172 12.9183 -1.93129e-07 8.5 0C4.08172 1.93129e-07 0.499995 3.58172 0.499996 8C0.499996 12.4183 4.08172 16 8.5 16ZM10 103C10 102.172 9.32843 101.5 8.5 101.5C7.67157 101.5 7 102.172 7 103L10 103ZM7 93C7 93.8284 7.67157 94.5 8.5 94.5C9.32843 94.5 10 93.8284 10 93L7 93ZM10 83C10 82.1716 9.32843 81.5 8.5 81.5C7.67157 81.5 7 82.1716 7 83L10 83ZM7 73C7 73.8284 7.67157 74.5 8.5 74.5C9.32843 74.5 10 73.8284 10 73L7 73ZM10 63C10 62.1716 9.32843 61.5 8.5 61.5C7.67157 61.5 7 62.1716 7 63L10 63ZM7 53C7 53.8284 7.67157 54.5 8.5 54.5C9.32842 54.5 10 53.8284 10 53L7 53ZM10 43C10 42.1716 9.32842 41.5 8.5 41.5C7.67157 41.5 7 42.1716 7 43L10 43ZM7 33C7 33.8284 7.67157 34.5 8.5 34.5C9.32842 34.5 10 33.8284 10 33L7 33ZM10 23C10 22.1716 9.32842 21.5 8.5 21.5C7.67157 21.5 7 22.1716 7 23L10 23ZM7 13C7 13.8284 7.67157 14.5 8.5 14.5C9.32842 14.5 10 13.8284 10 13L7 13ZM10 108L10 103L7 103L7 108L10 108ZM10 93L10 83L7 83L7 93L10 93ZM10 73L10 63L7 63L7 73L10 73ZM10 53L10 43L7 43L7 53L10 53ZM10 33L10 23L7 23L7 33L10 33ZM10 13L10 8L7 8L7 13L10 13Z" fill="url(#paint0_linear_4623_60029)"/>
<defs>
<linearGradient id="paint0_linear_4623_60029" x1="8.5725" y1="108" x2="15.3658" y2="107.604" gradientUnits="userSpaceOnUse">
<stop stop-color="#0072BC"/>
<stop offset="1" stop-color="#009FA9"/>
</linearGradient>
</defs>
</svg>
