<svg width="16" height="16" viewBox="0 0 16 16" fill="none" xmlns="http://www.w3.org/2000/svg">
<g clip-path="url(#clip0_4639_67479)">
<path d="M5.85759 8.46875C4.93453 8.46875 4.18359 9.21969 4.18359 10.1427V14.326C4.18359 15.249 4.93453 16 5.85759 16C6.78066 16 7.53159 15.2491 7.53159 14.326V10.1427C7.53159 9.21969 6.78066 8.46875 5.85759 8.46875Z" fill="#FF4340"/>
<path d="M3.24516 8.46875H1.62453C0.730906 8.46875 0.00390625 9.19578 0.00390625 10.0894C0.00390625 10.983 0.730937 11.71 1.62453 11.71C2.51813 11.71 3.24516 10.983 3.24516 10.0894V8.46875Z" fill="#FF4340"/>
<path d="M0 5.85735C0 6.78041 0.750938 7.53135 1.674 7.53135H5.85722C6.78031 7.53135 7.53125 6.78041 7.53125 5.85735C7.53125 4.93429 6.78031 4.18335 5.85725 4.18335H1.674C0.750938 4.18332 0 4.93429 0 5.85735Z" fill="#36C6FF"/>
<path d="M5.90969 3.24565H7.53031V1.62502C7.53031 0.731394 6.80328 0.00439453 5.90969 0.00439453C5.01606 0.00439453 4.28906 0.731426 4.28906 1.62502C4.28906 2.51861 5.01606 3.24565 5.90969 3.24565Z" fill="#36C6FF"/>
<path d="M10.1427 7.53125C11.0658 7.53125 11.8167 6.78031 11.8167 5.85725V1.674C11.8168 0.750938 11.0658 0 10.1427 0C9.21969 0 8.46875 0.750938 8.46875 1.674V5.85722C8.46875 6.78031 9.21969 7.53125 10.1427 7.53125Z" fill="#0DC46E"/>
<path d="M12.7539 7.53129H14.3745C15.2682 7.53129 15.9952 6.80426 15.9952 5.91066C15.9952 5.01704 15.2681 4.29004 14.3745 4.29004C13.4809 4.29004 12.7539 5.01707 12.7539 5.91066V7.53129Z" fill="#0DC46E"/>
<path d="M16 10.1427C16 9.21969 15.2491 8.46875 14.326 8.46875H10.1427C9.21969 8.46875 8.46875 9.21969 8.46875 10.1427C8.46875 11.0658 9.21969 11.8167 10.1427 11.8167H14.326C15.2491 11.8168 16 11.0658 16 10.1427Z" fill="#FDCB02"/>
<path d="M10.0894 12.7544H8.46875V14.375C8.46875 15.2686 9.19578 15.9956 10.0894 15.9956C10.983 15.9956 11.71 15.2686 11.71 14.375C11.71 13.4814 10.983 12.7544 10.0894 12.7544Z" fill="#FDCB02"/>
</g>
<defs>
<clipPath id="clip0_4639_67479">
<rect width="16" height="16" fill="white"/>
</clipPath>
</defs>
</svg>
