<svg width="16" height="16" viewBox="0 0 16 16" fill="none" xmlns="http://www.w3.org/2000/svg">
<g clip-path="url(#clip0_4639_67492)">
<path d="M16 1.45041C16 0.649375 15.3506 0 14.5496 0H1.45041C0.649375 0 0 0.649375 0 1.45041V14.5496C0 15.3506 0.649375 16 1.45041 16H14.5496C15.3506 16 16 15.3506 16 14.5496V1.45041ZM5.33138 3.12322C5.86331 3.12322 6.30881 3.54 6.30881 4.086C6.30881 4.63241 5.86331 5.04928 5.33138 5.04928C4.79956 5.04928 4.35406 4.63241 4.35406 4.086C4.35406 3.53997 4.79956 3.12322 5.33138 3.12322ZM11.8704 12.3364C10.8787 12.3364 10.4045 11.7474 10.4045 10.9422C10.4045 10.7125 10.4331 10.4679 10.505 10.2235L10.9794 8.5275C11.0368 8.34056 11.0513 8.16825 11.0513 8.01003C11.0513 7.46403 10.7206 7.13331 10.1888 7.13331C9.51316 7.13331 9.06759 7.61819 8.83766 8.55253L7.91766 12.2424H6.30791L6.59681 11.0828C6.12369 11.8601 5.46653 12.3416 4.65584 12.3416C3.67844 12.3416 3.21847 11.7785 3.21847 10.9303C3.21847 10.715 3.24728 10.4511 3.30472 10.2068L4.03775 7.21212H2.90234L3.24731 5.93941H5.97825L4.90013 10.2159C4.82825 10.4892 4.79953 10.7159 4.79953 10.8737C4.79953 11.1472 4.93412 11.2271 5.14463 11.2746C5.27278 11.3033 6.29422 11.2832 6.85038 10.0471L7.55841 7.21212H6.4085L6.75347 5.93941H9.21131L8.89516 7.38434C9.32628 6.57931 10.1888 5.81444 11.0367 5.81444C11.9423 5.81444 12.6898 6.45953 12.6898 7.69566C12.6898 8.01172 12.6466 8.35584 12.5317 8.74381L12.0716 10.3962C12.0286 10.5691 11.9998 10.7127 11.9998 10.842C11.9998 11.1293 12.1148 11.273 12.3305 11.273C12.546 11.273 12.8191 11.1145 13.1354 10.2382L13.7677 10.4823C13.394 11.7904 12.7185 12.3364 11.8704 12.3364Z" fill="#FF3366"/>
</g>
<defs>
<clipPath id="clip0_4639_67492">
<rect width="16" height="16" fill="white"/>
</clipPath>
</defs>
</svg>
