<svg width="14" height="12" viewBox="0 0 14 12" fill="none" xmlns="http://www.w3.org/2000/svg">
<path d="M14 3.35408V9.38462C14 9.94565 13.7695 10.4837 13.3593 10.8804C12.9491 11.2771 12.3927 11.5 11.8125 11.5H2.1875C1.60734 11.5 1.05094 11.2771 0.640704 10.8804C0.230468 10.4837 0 9.94565 0 9.38462V3.35408L6.77775 7.21085C6.84508 7.24925 6.92183 7.2695 7 7.2695C7.07817 7.2695 7.15492 7.24925 7.22225 7.21085L14 3.35408ZM11.8125 0.5C12.3508 0.499918 12.8701 0.691744 13.2713 1.03878C13.6725 1.38582 13.9272 1.8637 13.9869 2.381L7 6.35539L0.0131251 2.381C0.0727635 1.8637 0.327533 1.38582 0.728696 1.03878C1.12986 0.691744 1.64925 0.499918 2.1875 0.5H11.8125Z" fill="white"/>
</svg>
