<svg width="169" height="132" viewBox="0 0 169 132" fill="none" xmlns="http://www.w3.org/2000/svg">
<g opacity="0.3" clip-path="url(#clip0_4604_14499)">
<path d="M163.414 45.2377C155.231 48.7478 146.885 52.7427 138.608 57.1122C130.693 61.29 122.702 65.8837 114.858 70.7643C107.199 75.5296 99.5315 80.6608 92.0681 86.0174C84.6363 91.3502 77.2425 97.0238 70.0927 102.879C62.838 108.821 55.6554 115.097 48.7446 121.536C45.221 124.818 41.6758 128.236 38.2078 131.698L37.9043 132.001H38.4861L38.5392 131.948C41.9642 128.528 45.4942 125.123 49.0318 121.828C49.8766 121.04 50.7582 120.225 51.6511 119.406C68.6686 103.806 87.4644 89.3221 107.515 76.3589C127.929 63.1603 148.578 52.2329 168.889 43.8823L168.999 43.8372V42.9102L168.751 43.0104C166.946 43.7445 165.15 44.4948 163.414 45.2402V45.2377Z" fill="white"/>
<path d="M167.422 108.155C165.235 106.287 162.574 104.834 159.513 103.835C156.677 102.91 153.482 102.388 150.016 102.284C149.589 102.272 149.15 102.266 148.712 102.266C145.829 102.266 142.73 102.542 139.501 103.09C135.96 103.69 132.205 104.623 128.341 105.863C124.613 107.06 120.739 108.556 116.826 110.311C112.998 112.027 109.081 114.012 105.181 116.212C101.311 118.397 97.4081 120.822 93.5809 123.422C89.8107 125.982 86.0404 128.761 82.3763 131.682L81.9805 131.998H82.7178L82.7672 131.959C93.8288 123.216 105.742 115.893 117.216 110.783C128.911 105.574 139.827 102.821 148.782 102.821C152.642 102.821 156.156 103.33 159.228 104.335C163.059 105.589 166.242 107.557 168.687 110.184L168.998 110.519V109.662L168.95 109.61C168.467 109.099 167.953 108.611 167.421 108.156L167.422 108.155Z" fill="white"/>
<path d="M157.961 93.5247H157.901C154.084 93.5297 149.958 93.9481 145.638 94.7699C141.546 95.5478 137.222 96.6966 132.785 98.186C128.526 99.6154 124.107 101.377 119.649 103.422C115.306 105.415 110.868 107.705 106.459 110.228C102.091 112.726 97.6926 115.489 93.3822 118.439C89.0504 121.403 84.7299 124.608 80.5423 127.968C79.065 129.153 77.5486 130.405 76.0334 131.687L75.6641 131.999H76.3306L76.3812 131.957C90.2127 120.25 105.21 110.538 119.754 103.867C133.775 97.4357 146.924 94.0358 157.781 94.0358C161.763 94.0358 165.462 94.4918 168.775 95.3912L169.002 95.4526V94.8776L168.869 94.8425C165.567 93.9681 161.897 93.5234 157.963 93.5234L157.961 93.5247Z" fill="white"/>
<path d="M166.863 83.5598C162.385 83.7138 157.566 84.3327 152.544 85.4C147.811 86.4059 142.831 87.8228 137.742 89.6129C132.871 91.3254 127.836 93.4024 122.775 95.7838C117.853 98.0988 112.837 100.738 107.863 103.626C102.947 106.481 98.0003 109.621 93.16 112.96C88.3008 116.312 83.458 119.926 78.7669 123.703C75.6202 126.236 72.4481 128.922 69.338 131.688L68.9902 131.997H69.629L69.6795 131.952C86.4226 117.075 104.82 104.719 122.883 96.2235C139.792 88.27 155.678 84.0558 168.821 84.0358H169.001V83.5234H168.821C168.152 83.5272 167.493 83.5397 166.865 83.561L166.863 83.5598Z" fill="white"/>
<path d="M161.825 121.864C160.873 119.438 159.475 117.333 157.673 115.609C155.888 113.902 153.685 112.549 151.126 111.589C148.743 110.696 146.041 110.155 143.091 109.983C142.398 109.943 141.68 109.922 140.956 109.922C138.782 109.922 136.463 110.105 134.063 110.467C131 110.928 127.741 111.687 124.375 112.722C121.121 113.723 117.729 114.994 114.294 116.501C110.927 117.977 107.474 119.699 104.034 121.617C100.614 123.524 97.1598 125.65 93.7664 127.938C92.0109 129.122 90.2288 130.381 88.467 131.679L88.0332 131.998H88.8528L88.9008 131.963C107.35 118.507 126.826 110.474 140.998 110.474C144.686 110.474 147.995 111.016 150.832 112.082C154.909 113.615 158.017 116.127 160.068 119.546C162.07 122.881 163.03 127.01 162.923 131.817L162.919 131.998H163.348L163.353 131.827C163.371 131.268 163.376 130.723 163.367 130.21C163.311 127.13 162.794 124.322 161.829 121.864H161.825Z" fill="white"/>
<path d="M131.997 129.273C129.838 128.189 127.215 127.641 124.201 127.641C123.271 127.641 122.291 127.693 121.286 127.797C119.295 128.004 117.16 128.417 114.942 129.027C112.78 129.621 110.515 130.408 108.207 131.366C107.977 131.461 107.745 131.56 107.514 131.659L107.584 132H108.046L108.079 131.986C114.012 129.501 119.567 128.187 124.142 128.187C127.067 128.187 129.597 128.714 131.662 129.753C132.818 130.334 133.837 131.072 134.691 131.946L134.744 132H135.568L135.288 131.702C134.375 130.729 133.267 129.912 131.997 129.274V129.273Z" fill="white"/>
<path d="M152.612 127.606C151.876 125.454 150.757 123.574 149.285 122.019C147.819 120.471 145.986 119.228 143.839 118.325C141.829 117.479 139.535 116.943 137.022 116.731C136.186 116.66 135.31 116.625 134.42 116.625C132.782 116.625 131.047 116.745 129.26 116.985C126.609 117.338 123.779 117.955 120.846 118.822C118.004 119.663 115.037 120.744 112.027 122.038C109.066 123.311 106.03 124.803 103 126.473C100.166 128.035 97.285 129.785 94.4367 131.674L93.9473 131.998H94.7466L94.7921 131.968C100.59 128.132 106.419 124.947 112.119 122.498C120.285 118.99 127.937 117.137 134.249 117.137C137.767 117.137 140.888 117.701 143.528 118.815C148.989 121.117 152.249 125.622 152.96 131.84L152.978 131.998H153.55L153.528 131.802C153.361 130.307 153.054 128.897 152.614 127.609L152.612 127.606Z" fill="white"/>
<path d="M137.503 124.182C135.085 123.064 132.19 122.496 128.9 122.496C127.669 122.496 126.363 122.576 125.019 122.734C122.722 123.005 120.265 123.51 117.713 124.235C115.232 124.941 112.638 125.863 110.003 126.976C107.408 128.071 104.739 129.363 102.072 130.818C101.618 131.066 101.12 131.344 100.552 131.666L99.9688 131.998H100.874L100.916 131.974C103.998 130.232 107.086 128.707 110.091 127.439C116.962 124.542 123.405 123.01 128.721 123.01C131.965 123.01 134.811 123.566 137.177 124.665C140.426 126.173 142.698 128.601 143.926 131.881L143.969 131.997H144.576L144.491 131.76C143.256 128.306 140.904 125.756 137.501 124.181L137.503 124.182Z" fill="white"/>
<path d="M168.729 0.15659C165.698 1.91916 162.681 3.69927 159.761 5.44932C147.663 12.6988 135.6 20.3754 123.906 28.2663C112.667 35.849 101.492 43.8175 90.6892 51.9502C85.3683 55.9551 80.0246 60.0866 74.8049 64.2305C69.5928 68.3683 64.3667 72.6275 59.271 76.8905C54.1499 81.1735 49.0086 85.5894 43.9875 90.0152C38.9221 94.4799 33.8288 99.0886 28.8507 103.711C24.0382 108.181 19.2486 112.747 14.6144 117.283C10.017 121.783 5.43093 126.392 0.981462 130.983L0 131.999H0.799335L0.852456 131.944C10.1245 122.208 19.6356 112.803 29.1239 103.992C30.3469 102.856 31.6079 101.692 32.8727 100.533C71.7277 64.9133 118.77 30.6891 168.911 1.56088L169 1.50952V0L168.731 0.15659H168.729Z" fill="white"/>
<path d="M148.572 32.7814C138.716 38.3222 128.82 44.3014 119.163 50.5537C109.811 56.6081 100.473 63.0521 91.4084 69.709C82.4336 76.2996 73.5132 83.2584 64.8925 90.3914C56.1618 97.6145 47.5095 105.209 39.1746 112.963C32.6168 119.064 26.1538 125.367 19.9666 131.701L19.6719 132.002H20.3662L20.4194 131.947C26.6433 125.498 33.0481 119.208 39.4529 113.248C40.5014 112.274 41.5651 111.292 42.6161 110.328C60.5657 93.8739 80.4403 78.0659 101.686 63.3427C123.449 48.2625 146.063 34.7357 168.902 23.1355L169 23.0867V21.8828L168.739 22.0143C161.999 25.4242 155.214 29.0471 148.571 32.7814H148.572Z" fill="white"/>
<path d="M143.426 45.3457C134.575 50.1661 125.667 55.415 116.949 60.9457C108.466 66.3274 99.9871 72.0886 91.7472 78.0691C83.5578 84.012 75.419 90.3082 67.5546 96.781C59.5777 103.346 51.6767 110.265 44.0716 117.346C39.0897 121.983 34.1191 126.811 29.2953 131.695L28.998 131.997H29.5735L29.6266 131.943C34.4012 127.103 39.3578 122.289 44.3562 117.635C45.3111 116.746 46.2824 115.849 47.2411 114.969C82.7736 82.396 125.978 53.5033 168.897 33.6165L169.001 33.5689V32.5078L168.746 32.6256C160.332 36.499 151.814 40.7782 143.427 45.3457H143.426Z" fill="white"/>
<path d="M154.027 19.457C143.084 25.8083 132.136 32.5968 121.485 39.6345C111.205 46.428 100.966 53.6086 91.055 60.9783C81.2581 68.2616 71.5245 75.9195 62.1234 83.7414C57.4033 87.6687 52.6617 91.7237 48.0326 95.7938C43.3631 99.9002 38.6708 104.143 34.0872 108.402C29.658 112.52 25.2528 116.73 20.9943 120.915C17.3948 124.452 13.7902 128.08 10.2792 131.699L9.98828 132H10.5625L10.6156 131.945C18.2776 124.038 26.2684 116.212 34.3642 108.686C35.524 107.608 36.6851 106.536 37.8158 105.5C56.2827 88.5706 76.7467 72.0774 98.6399 56.4773C121.16 40.4313 144.801 25.6129 168.908 12.4355L169 12.3854V11.0312L168.735 11.1766C163.797 13.8724 158.849 16.6572 154.028 19.4558L154.027 19.457Z" fill="white"/>
<path d="M149.351 69.5466C143.019 72.0019 136.51 74.8856 130.008 78.1189C123.733 81.2382 117.367 84.7307 111.083 88.5002C104.906 92.2057 98.7062 96.2407 92.6542 100.492C86.5985 104.747 80.5719 109.304 74.74 114.037C68.807 118.852 62.9435 123.957 57.3127 129.208C56.5197 129.948 55.685 130.737 54.6833 131.693L54.3633 131.998H54.9704L55.0222 131.948C55.9126 131.098 56.7815 130.276 57.6074 129.507C58.3309 128.833 59.0568 128.16 59.7676 127.509C81.5837 107.51 105.913 90.5772 130.128 78.5436C143.502 71.8967 156.537 66.8845 168.868 63.6463L169.001 63.6112V63.1289L168.776 63.1878C162.505 64.8414 155.97 66.981 149.351 69.5466Z" fill="white"/>
<path d="M160.292 74.8945C154.818 76.1898 149.085 77.9374 143.252 80.0908C137.695 82.1402 131.966 84.588 126.221 87.364C120.658 90.0536 114.999 93.0915 109.401 96.3924C103.887 99.6444 98.3396 103.208 92.915 106.983C87.4815 110.764 82.0709 114.827 76.8296 119.063C71.8869 123.058 66.9745 127.307 62.2291 131.693L61.8965 132H62.515L62.5668 131.952C62.8387 131.7 63.1119 131.448 63.3851 131.198C79.2858 116.621 97.4315 103.58 115.858 93.4873C134.616 83.2125 152.939 76.4078 168.848 73.8097L168.999 73.7846V73.1758L168.791 73.2084C166.025 73.6468 163.165 74.213 160.291 74.8933L160.292 74.8945Z" fill="white"/>
<path d="M156.063 57.9429C148.854 60.8817 141.475 64.2791 134.133 68.0385C127.077 71.6501 119.934 75.66 112.9 79.9543C106.014 84.1597 99.1067 88.7158 92.3692 93.4987C85.6482 98.2691 78.9601 103.363 72.4896 108.637C65.914 113.997 59.4106 119.668 53.1626 125.493C50.9998 127.509 48.8156 129.596 46.6705 131.694L46.3594 131.998H46.9513L47.0031 131.947C49.1216 129.873 51.292 127.801 53.4509 125.787C54.2161 125.075 55.0129 124.337 55.8211 123.596C72.2176 108.565 91.0589 94.3268 110.309 82.4184C130.157 70.1406 149.862 60.5573 168.875 53.9367L168.995 53.8953V53.0898L168.758 53.1713C164.576 54.6069 160.304 56.2116 156.059 57.9429H156.063Z" fill="white"/>
</g>
<defs>
<clipPath id="clip0_4604_14499">
<rect width="169" height="132" fill="white"/>
</clipPath>
</defs>
</svg>
