<svg width="246" height="210" viewBox="0 0 246 210" fill="none" xmlns="http://www.w3.org/2000/svg">
<path d="M123 50.5251C136.289 50.5251 147.062 39.321 147.062 25.5001C147.062 11.6792 136.289 0.475098 123 0.475098C109.711 0.475098 98.9375 11.6792 98.9375 25.5001C98.9375 39.321 109.711 50.5251 123 50.5251Z" fill="black"/>
<path d="M137.7 54.3751H108.3C100.492 54.0431 92.8718 56.8239 87.1131 62.1069C81.3544 67.3898 77.9283 74.7427 77.5875 82.5501V120.613C77.6256 125.102 79.0499 129.471 81.6656 133.12C84.2812 136.77 87.9604 139.522 92.2 141V191.75C92.0277 196.263 93.607 200.668 96.6076 204.044C99.6082 207.42 103.798 209.505 108.3 209.863H137.7C142.202 209.505 146.392 207.42 149.392 204.044C152.393 200.668 153.972 196.263 153.8 191.75V141C158.012 139.532 161.671 136.806 164.285 133.192C166.898 129.577 168.339 125.247 168.413 120.788V82.5501C168.072 74.7427 164.646 67.3898 158.887 62.1069C153.128 56.8239 145.508 54.0431 137.7 54.3751ZM35.5 57.5251C38.4102 57.6298 41.2852 56.8625 43.7563 55.3218C46.2273 53.781 48.1817 51.5371 49.3686 48.878C50.5555 46.2188 50.9209 43.2656 50.4177 40.3974C49.9146 37.5291 48.566 34.8766 46.5448 32.7802C44.5237 30.6837 41.9223 29.239 39.0744 28.6313C36.2265 28.0236 33.2619 28.2807 30.5611 29.3695C27.8603 30.4584 25.5464 32.3294 23.9164 34.7425C22.2863 37.1555 21.4144 40.0006 21.4125 42.9126C21.3777 44.7972 21.7145 46.6701 22.4037 48.4245C23.0929 50.1788 24.121 51.7802 25.4292 53.1372C26.7374 54.4942 28.3001 55.5801 30.0281 56.333C31.7561 57.0859 33.6154 57.491 35.5 57.5251ZM46 64.5251H25C18.8223 64.2389 12.7817 66.4046 8.19311 70.5507C3.60452 74.6968 0.839508 80.4877 0.5 86.6626V112.913C0.550954 116.753 1.86354 120.469 4.23539 123.489C6.60724 126.509 9.90667 128.665 13.625 129.625V162.963C13.3817 166.723 14.6183 170.429 17.0706 173.29C19.5229 176.152 22.9967 177.94 26.75 178.275H45.0375C46.9356 178.132 48.7865 177.614 50.4838 176.752C52.1811 175.891 53.6913 174.702 54.9274 173.254C56.1635 171.807 57.1011 170.129 57.6864 168.318C58.2716 166.506 58.4929 164.597 58.3375 162.7V129.1C61.8341 127.981 64.8901 125.79 67.0729 122.837C69.2556 119.885 70.4546 116.321 70.5 112.65V86.4001C70.0943 80.2719 67.3006 74.5475 62.7193 70.457C58.138 66.3666 52.1349 64.2367 46 64.5251ZM210.5 57.5251C213.41 57.6298 216.285 56.8625 218.756 55.3218C221.227 53.781 223.182 51.5371 224.369 48.878C225.556 46.2188 225.921 43.2656 225.418 40.3974C224.915 37.5291 223.566 34.8766 221.545 32.7802C219.524 30.6837 216.922 29.239 214.074 28.6313C211.226 28.0236 208.262 28.2807 205.561 29.3695C202.86 30.4584 200.546 32.3294 198.916 34.7425C197.286 37.1555 196.414 40.0006 196.412 42.9126C196.378 44.7972 196.715 46.6701 197.404 48.4245C198.093 50.1788 199.121 51.7802 200.429 53.1372C201.737 54.4942 203.3 55.5801 205.028 56.333C206.756 57.0859 208.615 57.491 210.5 57.5251ZM221 64.5251H200C193.822 64.2389 187.782 66.4046 183.193 70.5507C178.605 74.6968 175.84 80.4877 175.5 86.6626V112.913C175.551 116.753 176.864 120.469 179.235 123.489C181.607 126.509 184.907 128.665 188.625 129.625V162.963C188.382 166.723 189.618 170.429 192.071 173.29C194.523 176.152 197.997 177.94 201.75 178.275H219.863C221.761 178.132 223.612 177.614 225.309 176.752C227.006 175.891 228.516 174.702 229.752 173.254C230.988 171.807 231.926 170.129 232.511 168.318C233.097 166.506 233.318 164.597 233.163 162.7V129.1C236.692 128.011 239.786 125.833 242.002 122.878C244.218 119.923 245.443 116.343 245.5 112.65V86.4001C245.094 80.2719 242.301 74.5475 237.719 70.457C233.138 66.3666 227.135 64.2367 221 64.5251Z" fill="black"/>
</svg>
