<svg width="24" height="24" viewBox="0 0 24 24" fill="none" xmlns="http://www.w3.org/2000/svg">
<path d="M11.992 6C7.576 6 4 9.584 4 14C4 18.416 7.576 22 11.992 22C16.416 22 20 18.416 20 14C20 9.584 16.416 6 11.992 6ZM15.2 17.2C15.126 17.2742 15.0381 17.333 14.9413 17.3731C14.8445 17.4133 14.7408 17.434 14.636 17.434C14.5312 17.434 14.4275 17.4133 14.3307 17.3731C14.2339 17.333 14.146 17.2742 14.072 17.2L11.44 14.568C11.3644 14.4939 11.3043 14.4056 11.2631 14.3081C11.2219 14.2106 11.2004 14.1058 11.2 14V10.8C11.2 10.36 11.56 10 12 10C12.44 10 12.8 10.36 12.8 10.8V13.672L15.2 16.072C15.512 16.384 15.512 16.888 15.2 17.2Z" fill="#EAECF0"/>
</svg>
