<svg width="68" height="68" viewBox="0 0 68 68" fill="none" xmlns="http://www.w3.org/2000/svg">
<g clip-path="url(#clip0_4612_15014)">
<path d="M34 68C52.7777 68 68 52.7777 68 34C68 15.2223 52.7777 0 34 0C15.2223 0 0 15.2223 0 34C0 52.7777 15.2223 68 34 68Z" fill="#F0F0F0"/>
<path d="M7.02904 13.3001C4.35831 16.7749 2.34448 20.7798 1.17188 25.1306H18.8596L7.02904 13.3001Z" fill="#0052B4"/>
<path d="M66.83 25.1306C65.6574 20.78 63.6434 16.775 60.9728 13.3002L49.1426 25.1306H66.83Z" fill="#0052B4"/>
<path d="M1.17188 42.8698C2.34461 47.2204 4.35845 51.2254 7.02904 54.7L18.8592 42.8698H1.17188Z" fill="#0052B4"/>
<path d="M54.6995 7.02856C51.2248 4.35784 47.2199 2.344 42.8691 1.17126V18.8588L54.6995 7.02856Z" fill="#0052B4"/>
<path d="M13.3008 60.9714C16.7756 63.6422 20.7805 65.656 25.1312 66.8287V49.1413L13.3008 60.9714Z" fill="#0052B4"/>
<path d="M25.1311 1.17126C20.7804 2.344 16.7754 4.35783 13.3008 7.02843L25.1311 18.8587V1.17126Z" fill="#0052B4"/>
<path d="M42.8711 66.8287C47.2218 65.656 51.2267 63.6422 54.7014 60.9716L42.8711 49.1413V66.8287Z" fill="#0052B4"/>
<path d="M49.1426 42.8698L60.9728 54.7002C63.6434 51.2255 65.6574 47.2204 66.83 42.8698H49.1426Z" fill="#0052B4"/>
<path d="M67.7122 29.5653H38.435H38.4349V0.287805C36.9831 0.0988125 35.503 0 34 0C32.4967 0 31.0169 0.0988125 29.5653 0.287805V29.565V29.5651H0.287805C0.0988125 31.0169 0 32.497 0 34C0 35.5033 0.0988125 36.9831 0.287805 38.4347H29.565H29.5651V67.7122C31.0169 67.9012 32.4967 68 34 68C35.503 68 36.9831 67.9013 38.4347 67.7122V38.435V38.4349H67.7122C67.9012 36.9831 68 35.5033 68 34C68 32.497 67.9012 31.0169 67.7122 29.5653Z" fill="#D80027"/>
<path d="M42.8691 42.8698L58.0411 58.0417C58.7389 57.3442 59.4046 56.6149 60.0397 55.859L47.0503 42.8696H42.8691V42.8698Z" fill="#D80027"/>
<path d="M25.1311 42.8698H25.1308L9.95898 58.0416C10.6565 58.7394 11.3858 59.405 12.1418 60.0401L25.1311 47.0506V42.8698Z" fill="#D80027"/>
<path d="M25.1295 25.1307V25.1304L9.95755 9.95831C9.25975 10.6558 8.59409 11.3851 7.95898 12.1411L20.9484 25.1305L25.1295 25.1307Z" fill="#D80027"/>
<path d="M42.8691 25.1306L58.0412 9.95839C57.3437 9.26059 56.6144 8.59494 55.8585 7.95996L42.8691 20.9494V25.1306Z" fill="#D80027"/>
</g>
<defs>
<clipPath id="clip0_4612_15014">
<rect width="68" height="68" fill="white"/>
</clipPath>
</defs>
</svg>
