<svg width="68" height="68" viewBox="0 0 68 68" fill="none" xmlns="http://www.w3.org/2000/svg">
<g clip-path="url(#clip0_4612_15002)">
<path d="M34 68C52.7777 68 68 52.7777 68 34C68 15.2223 52.7777 0 34 0C15.2223 0 0 15.2223 0 34C0 52.7777 15.2223 68 34 68Z" fill="#F0F0F0"/>
<path d="M32.5215 34H67.9997C67.9997 30.9312 67.5906 27.9583 66.8284 25.1304H32.5215V34Z" fill="#D80027"/>
<path d="M32.5215 16.2609H63.0094C60.9281 12.8646 58.2669 9.86267 55.1642 7.3913H32.5215V16.2609Z" fill="#D80027"/>
<path d="M34.0004 68C42.0022 68 49.357 65.2343 55.1649 60.6087H12.8359C18.6438 65.2343 25.9986 68 34.0004 68Z" fill="#D80027"/>
<path d="M4.9909 51.7391H63.0103C64.6812 49.0126 65.9771 46.0323 66.8293 42.8695H1.17188C2.02413 46.0323 3.31998 49.0126 4.9909 51.7391Z" fill="#D80027"/>
<path d="M15.7494 5.30958H18.8478L15.9658 7.40337L17.0667 10.7913L14.1848 8.69749L11.3029 10.7913L12.2538 7.86449C9.7163 9.9782 7.49222 12.4546 5.65941 15.2139H6.65218L4.81764 16.5467C4.53183 17.0235 4.2577 17.5079 3.995 17.9994L4.87103 20.6956L3.23664 19.5082C2.83037 20.3689 2.45876 21.2491 2.12473 22.1475L3.08988 25.1183H6.65218L3.77015 27.2121L4.87103 30.6L1.98913 28.5062L0.262836 29.7605C0.0900469 31.1494 0 32.5642 0 34H34C34 15.2224 34 13.0087 34 0C27.2834 0 21.0222 1.94836 15.7494 5.30958ZM17.0667 30.6L14.1848 28.5062L11.3029 30.6L12.4038 27.2121L9.52173 25.1183H13.084L14.1848 21.7304L15.2855 25.1183H18.8478L15.9658 27.2121L17.0667 30.6ZM15.9658 17.3077L17.0667 20.6956L14.1848 18.6019L11.3029 20.6956L12.4038 17.3077L9.52173 15.2139H13.084L14.1848 11.826L15.2855 15.2139H18.8478L15.9658 17.3077ZM29.2623 30.6L26.3804 28.5062L23.4985 30.6L24.5994 27.2121L21.7174 25.1183H25.2797L26.3804 21.7304L27.4812 25.1183H31.0435L28.1614 27.2121L29.2623 30.6ZM28.1614 17.3077L29.2623 20.6956L26.3804 18.6019L23.4985 20.6956L24.5994 17.3077L21.7174 15.2139H25.2797L26.3804 11.826L27.4812 15.2139H31.0435L28.1614 17.3077ZM28.1614 7.40337L29.2623 10.7913L26.3804 8.69749L23.4985 10.7913L24.5994 7.40337L21.7174 5.30958H25.2797L26.3804 1.92166L27.4812 5.30958H31.0435L28.1614 7.40337Z" fill="#0052B4"/>
</g>
<defs>
<clipPath id="clip0_4612_15002">
<rect width="68" height="68" fill="white"/>
</clipPath>
</defs>
</svg>
